<svg xmlns="http://www.w3.org/2000/svg" xmlns:xlink="http://www.w3.org/1999/xlink" width="458pt" height="1380pt" viewBox="0.00 0.00 458.00 1380.00">
<g id="graph0" class="graph" transform="scale(1 1) rotate(0) translate(4 1376.2)">
<title>resnet18</title>
<polygon fill="white" stroke="none" points="-4,4 -4,-1376.2 454.36,-1376.2 454.36,4 -4,4"/>
<g id="clust1" class="cluster">
<title>cluster_conv2</title>
<path fill="#e6f7ff" stroke="black" d="M76,-993.4C76,-993.4 152,-993.4 152,-993.4 158,-993.4 164,-999.4 164,-1005.4 164,-1005.4 164,-1163.6 164,-1163.6 164,-1169.6 158,-1175.6 152,-1175.6 152,-1175.6 76,-1175.6 76,-1175.6 70,-1175.6 64,-1169.6 64,-1163.6 64,-1163.6 64,-1005.4 64,-1005.4 64,-999.4 70,-993.4 76,-993.4"/>
<text xml:space="preserve" text-anchor="middle" x="114" y="-1159" font-family="Arial" font-size="14.00">Conv2_x (×2)</text>
</g>
<g id="clust2" class="cluster">
<title>cluster_conv3</title>
<path fill="#e6f7ff" stroke="black" d="M20,-738.2C20,-738.2 208,-738.2 208,-738.2 214,-738.2 220,-744.2 220,-750.2 220,-750.2 220,-962.4 220,-962.4 220,-968.4 214,-974.4 208,-974.4 208,-974.4 20,-974.4 20,-974.4 14,-974.4 8,-968.4 8,-962.4 8,-962.4 8,-750.2 8,-750.2 8,-744.2 14,-738.2 20,-738.2"/>
<text xml:space="preserve" text-anchor="middle" x="114" y="-957.8" font-family="Arial" font-size="14.00">Conv3_x (×2)</text>
</g>
<g id="clust3" class="cluster">
<title>cluster_conv4</title>
<path fill="#e6f7ff" stroke="black" d="M20,-483C20,-483 208,-483 208,-483 214,-483 220,-489 220,-495 220,-495 220,-707.2 220,-707.2 220,-713.2 214,-719.2 208,-719.2 208,-719.2 20,-719.2 20,-719.2 14,-719.2 8,-713.2 8,-707.2 8,-707.2 8,-495 8,-495 8,-489 14,-483 20,-483"/>
<text xml:space="preserve" text-anchor="middle" x="114" y="-702.6" font-family="Arial" font-size="14.00">Conv4_x (×2)</text>
</g>
<g id="clust4" class="cluster">
<title>cluster_conv5</title>
<path fill="#e6f7ff" stroke="black" d="M20,-227.8C20,-227.8 208,-227.8 208,-227.8 214,-227.8 220,-233.8 220,-239.8 220,-239.8 220,-452 220,-452 220,-458 214,-464 208,-464 208,-464 20,-464 20,-464 14,-464 8,-458 8,-452 8,-452 8,-239.8 8,-239.8 8,-233.8 14,-227.8 20,-227.8"/>
<text xml:space="preserve" text-anchor="middle" x="114" y="-447.4" font-family="Arial" font-size="14.00">Conv5_x (×2)</text>
</g>
<!-- input -->
<g id="node1" class="node">
<title>input</title>
<path fill="#a8d1ff" stroke="black" d="M292.03,-1372.2C292.03,-1372.2 229.97,-1372.2 229.97,-1372.2 223.97,-1372.2 217.97,-1366.2 217.97,-1360.2 217.97,-1360.2 217.97,-1342.6 217.97,-1342.6 217.97,-1336.6 223.97,-1330.6 229.97,-1330.6 229.97,-1330.6 292.03,-1330.6 292.03,-1330.6 298.03,-1330.6 304.03,-1336.6 304.03,-1342.6 304.03,-1342.6 304.03,-1360.2 304.03,-1360.2 304.03,-1366.2 298.03,-1372.2 292.03,-1372.2"/>
<text xml:space="preserve" text-anchor="middle" x="261" y="-1355.6" font-family="Arial" font-size="14.00">Input</text>
<text xml:space="preserve" text-anchor="middle" x="261" y="-1338.8" font-family="Arial" font-size="14.00">224×224×3</text>
</g>
<!-- conv1 -->
<g id="node2" class="node">
<title>conv1</title>
<path fill="#a8d1ff" stroke="black" d="M326.84,-1293.6C326.84,-1293.6 195.16,-1293.6 195.16,-1293.6 189.16,-1293.6 183.16,-1287.6 183.16,-1281.6 183.16,-1281.6 183.16,-1230.4 183.16,-1230.4 183.16,-1224.4 189.16,-1218.4 195.16,-1218.4 195.16,-1218.4 326.84,-1218.4 326.84,-1218.4 332.84,-1218.4 338.84,-1224.4 338.84,-1230.4 338.84,-1230.4 338.84,-1281.6 338.84,-1281.6 338.84,-1287.6 332.84,-1293.6 326.84,-1293.6"/>
<text xml:space="preserve" text-anchor="middle" x="261" y="-1277" font-family="Arial" font-size="14.00">Conv1</text>
<text xml:space="preserve" text-anchor="middle" x="261" y="-1260.2" font-family="Arial" font-size="14.00">7×7, 64, stride=2</text>
<text xml:space="preserve" text-anchor="middle" x="261" y="-1243.4" font-family="Arial" font-size="14.00">BN + ReLU</text>
<text xml:space="preserve" text-anchor="middle" x="261" y="-1226.6" font-family="Arial" font-size="14.00">MaxPool 3×3, stride=2</text>
</g>
<!-- input&#45;&gt;conv1 -->
<g id="edge1" class="edge">
<title>input-&gt;conv1</title>
<path fill="none" stroke="black" d="M261,-1330.13C261,-1322.75 261,-1314.05 261,-1305.27"/>
<polygon fill="black" stroke="black" points="264.5,-1305.31 261,-1295.31 257.5,-1305.31 264.5,-1305.31"/>
</g>
<!-- b2_1 -->
<g id="node3" class="node">
<title>b2_1</title>
<path fill="#f0f0f0" stroke="black" d="M291.23,-1155.2C291.23,-1155.2 230.77,-1155.2 230.77,-1155.2 224.77,-1155.2 218.77,-1149.2 218.77,-1143.2 218.77,-1143.2 218.77,-1108.8 218.77,-1108.8 218.77,-1102.8 224.77,-1096.8 230.77,-1096.8 230.77,-1096.8 291.23,-1096.8 291.23,-1096.8 297.23,-1096.8 303.23,-1102.8 303.23,-1108.8 303.23,-1108.8 303.23,-1143.2 303.23,-1143.2 303.23,-1149.2 297.23,-1155.2 291.23,-1155.2"/>
<text xml:space="preserve" text-anchor="middle" x="261" y="-1138.6" font-family="Arial" font-size="14.00">BasicBlock</text>
<text xml:space="preserve" text-anchor="middle" x="261" y="-1121.8" font-family="Arial" font-size="14.00">3×3, 64</text>
<text xml:space="preserve" text-anchor="middle" x="261" y="-1105" font-family="Arial" font-size="14.00">3×3, 64</text>
</g>
<!-- conv1&#45;&gt;b2_1 -->
<g id="edge3" class="edge">
<title>conv1-&gt;b2_1</title>
<path fill="none" stroke="black" d="M261,-1217.98C261,-1201.94 261,-1183.13 261,-1166.79"/>
<polygon fill="black" stroke="black" points="264.5,-1166.91 261,-1156.91 257.5,-1166.91 264.5,-1166.91"/>
</g>
<!-- b2_2 -->
<g id="node4" class="node">
<title>b2_2</title>
<path fill="#f0f0f0" stroke="black" d="M144.23,-1059.8C144.23,-1059.8 83.77,-1059.8 83.77,-1059.8 77.77,-1059.8 71.77,-1053.8 71.77,-1047.8 71.77,-1047.8 71.77,-1013.4 71.77,-1013.4 71.77,-1007.4 77.77,-1001.4 83.77,-1001.4 83.77,-1001.4 144.23,-1001.4 144.23,-1001.4 150.23,-1001.4 156.23,-1007.4 156.23,-1013.4 156.23,-1013.4 156.23,-1047.8 156.23,-1047.8 156.23,-1053.8 150.23,-1059.8 144.23,-1059.8"/>
<text xml:space="preserve" text-anchor="middle" x="114" y="-1043.2" font-family="Arial" font-size="14.00">BasicBlock</text>
<text xml:space="preserve" text-anchor="middle" x="114" y="-1026.4" font-family="Arial" font-size="14.00">3×3, 64</text>
<text xml:space="preserve" text-anchor="middle" x="114" y="-1009.6" font-family="Arial" font-size="14.00">3×3, 64</text>
</g>
<!-- b2_1&#45;&gt;b2_2 -->
<g id="edge2" class="edge">
<title>b2_1-&gt;b2_2</title>
<path fill="none" stroke="black" d="M218.48,-1097.98C202.1,-1087.57 183.2,-1075.57 166.02,-1064.65"/>
<polygon fill="black" stroke="black" points="168.27,-1061.94 157.95,-1059.53 164.52,-1067.84 168.27,-1061.94"/>
</g>
<!-- b2_1_out -->
<g id="node15" class="node">
<title>b2_1_out</title>
<ellipse fill="#f0f0f0" stroke="black" cx="450" cy="-1126" rx="0.36" ry="0.36"/>
</g>
<!-- b2_1&#45;&gt;b2_1_out -->
<g id="edge14" class="edge">
<title>b2_1-&gt;b2_1_out</title>
<path fill="none" stroke="red" stroke-dasharray="5,2" d="M303.42,-1126C346.78,-1126 411.41,-1126 437.96,-1126"/>
<polygon fill="red" stroke="red" points="437.9,-1129.5 447.9,-1126 437.9,-1122.5 437.9,-1129.5"/>
<text xml:space="preserve" text-anchor="middle" x="376.44" y="-1133.2" font-family="Arial" font-size="14.00" fill="red">Residual Connection</text>
</g>
<!-- b3_1 -->
<g id="node5" class="node">
<title>b3_1</title>
<path fill="#f0f0f0" stroke="black" d="M199.68,-916.8C199.68,-916.8 28.32,-916.8 28.32,-916.8 22.32,-916.8 16.32,-910.8 16.32,-904.8 16.32,-904.8 16.32,-853.6 16.32,-853.6 16.32,-847.6 22.32,-841.6 28.32,-841.6 28.32,-841.6 199.68,-841.6 199.68,-841.6 205.68,-841.6 211.68,-847.6 211.68,-853.6 211.68,-853.6 211.68,-904.8 211.68,-904.8 211.68,-910.8 205.68,-916.8 199.68,-916.8"/>
<text xml:space="preserve" text-anchor="middle" x="114" y="-900.2" font-family="Arial" font-size="14.00">BasicBlock</text>
<text xml:space="preserve" text-anchor="middle" x="114" y="-883.4" font-family="Arial" font-size="14.00">3×3, 128, stride=2</text>
<text xml:space="preserve" text-anchor="middle" x="114" y="-866.6" font-family="Arial" font-size="14.00">3×3, 128</text>
<text xml:space="preserve" text-anchor="middle" x="114" y="-849.8" font-family="Arial" font-size="14.00">(shortcut: 1×1, 128, stride=2)</text>
</g>
<!-- b2_2&#45;&gt;b3_1 -->
<g id="edge5" class="edge">
<title>b2_2-&gt;b3_1</title>
<path fill="none" stroke="black" d="M114,-1001.15C114,-980.63 114,-952.44 114,-928.43"/>
<polygon fill="black" stroke="black" points="117.5,-928.55 114,-918.55 110.5,-928.55 117.5,-928.55"/>
</g>
<!-- b3_2 -->
<g id="node6" class="node">
<title>b3_2</title>
<path fill="#f0f0f0" stroke="black" d="M144.23,-804.6C144.23,-804.6 83.77,-804.6 83.77,-804.6 77.77,-804.6 71.77,-798.6 71.77,-792.6 71.77,-792.6 71.77,-758.2 71.77,-758.2 71.77,-752.2 77.77,-746.2 83.77,-746.2 83.77,-746.2 144.23,-746.2 144.23,-746.2 150.23,-746.2 156.23,-752.2 156.23,-758.2 156.23,-758.2 156.23,-792.6 156.23,-792.6 156.23,-798.6 150.23,-804.6 144.23,-804.6"/>
<text xml:space="preserve" text-anchor="middle" x="114" y="-788" font-family="Arial" font-size="14.00">BasicBlock</text>
<text xml:space="preserve" text-anchor="middle" x="114" y="-771.2" font-family="Arial" font-size="14.00">3×3, 128</text>
<text xml:space="preserve" text-anchor="middle" x="114" y="-754.4" font-family="Arial" font-size="14.00">3×3, 128</text>
</g>
<!-- b3_1&#45;&gt;b3_2 -->
<g id="edge4" class="edge">
<title>b3_1-&gt;b3_2</title>
<path fill="none" stroke="black" d="M114,-841.16C114,-833.05 114,-824.42 114,-816.2"/>
<polygon fill="black" stroke="black" points="117.5,-816.47 114,-806.47 110.5,-816.47 117.5,-816.47"/>
</g>
<!-- b4_1 -->
<g id="node7" class="node">
<title>b4_1</title>
<path fill="#f0f0f0" stroke="black" d="M199.68,-661.6C199.68,-661.6 28.32,-661.6 28.32,-661.6 22.32,-661.6 16.32,-655.6 16.32,-649.6 16.32,-649.6 16.32,-598.4 16.32,-598.4 16.32,-592.4 22.32,-586.4 28.32,-586.4 28.32,-586.4 199.68,-586.4 199.68,-586.4 205.68,-586.4 211.68,-592.4 211.68,-598.4 211.68,-598.4 211.68,-649.6 211.68,-649.6 211.68,-655.6 205.68,-661.6 199.68,-661.6"/>
<text xml:space="preserve" text-anchor="middle" x="114" y="-645" font-family="Arial" font-size="14.00">BasicBlock</text>
<text xml:space="preserve" text-anchor="middle" x="114" y="-628.2" font-family="Arial" font-size="14.00">3×3, 256, stride=2</text>
<text xml:space="preserve" text-anchor="middle" x="114" y="-611.4" font-family="Arial" font-size="14.00">3×3, 256</text>
<text xml:space="preserve" text-anchor="middle" x="114" y="-594.6" font-family="Arial" font-size="14.00">(shortcut: 1×1, 256, stride=2)</text>
</g>
<!-- b3_2&#45;&gt;b4_1 -->
<g id="edge7" class="edge">
<title>b3_2-&gt;b4_1</title>
<path fill="none" stroke="black" d="M114,-745.95C114,-725.43 114,-697.24 114,-673.23"/>
<polygon fill="black" stroke="black" points="117.5,-673.35 114,-663.35 110.5,-673.35 117.5,-673.35"/>
</g>
<!-- b4_2 -->
<g id="node8" class="node">
<title>b4_2</title>
<path fill="#f0f0f0" stroke="black" d="M144.23,-549.4C144.23,-549.4 83.77,-549.4 83.77,-549.4 77.77,-549.4 71.77,-543.4 71.77,-537.4 71.77,-537.4 71.77,-503 71.77,-503 71.77,-497 77.77,-491 83.77,-491 83.77,-491 144.23,-491 144.23,-491 150.23,-491 156.23,-497 156.23,-503 156.23,-503 156.23,-537.4 156.23,-537.4 156.23,-543.4 150.23,-549.4 144.23,-549.4"/>
<text xml:space="preserve" text-anchor="middle" x="114" y="-532.8" font-family="Arial" font-size="14.00">BasicBlock</text>
<text xml:space="preserve" text-anchor="middle" x="114" y="-516" font-family="Arial" font-size="14.00">3×3, 256</text>
<text xml:space="preserve" text-anchor="middle" x="114" y="-499.2" font-family="Arial" font-size="14.00">3×3, 256</text>
</g>
<!-- b4_1&#45;&gt;b4_2 -->
<g id="edge6" class="edge">
<title>b4_1-&gt;b4_2</title>
<path fill="none" stroke="black" d="M114,-585.96C114,-577.85 114,-569.22 114,-561"/>
<polygon fill="black" stroke="black" points="117.5,-561.27 114,-551.27 110.5,-561.27 117.5,-561.27"/>
</g>
<!-- b5_1 -->
<g id="node9" class="node">
<title>b5_1</title>
<path fill="#f0f0f0" stroke="black" d="M199.68,-406.4C199.68,-406.4 28.32,-406.4 28.32,-406.4 22.32,-406.4 16.32,-400.4 16.32,-394.4 16.32,-394.4 16.32,-343.2 16.32,-343.2 16.32,-337.2 22.32,-331.2 28.32,-331.2 28.32,-331.2 199.68,-331.2 199.68,-331.2 205.68,-331.2 211.68,-337.2 211.68,-343.2 211.68,-343.2 211.68,-394.4 211.68,-394.4 211.68,-400.4 205.68,-406.4 199.68,-406.4"/>
<text xml:space="preserve" text-anchor="middle" x="114" y="-389.8" font-family="Arial" font-size="14.00">BasicBlock</text>
<text xml:space="preserve" text-anchor="middle" x="114" y="-373" font-family="Arial" font-size="14.00">3×3, 512, stride=2</text>
<text xml:space="preserve" text-anchor="middle" x="114" y="-356.2" font-family="Arial" font-size="14.00">3×3, 512</text>
<text xml:space="preserve" text-anchor="middle" x="114" y="-339.4" font-family="Arial" font-size="14.00">(shortcut: 1×1, 512, stride=2)</text>
</g>
<!-- b4_2&#45;&gt;b5_1 -->
<g id="edge9" class="edge">
<title>b4_2-&gt;b5_1</title>
<path fill="none" stroke="black" d="M114,-490.75C114,-470.23 114,-442.04 114,-418.03"/>
<polygon fill="black" stroke="black" points="117.5,-418.15 114,-408.15 110.5,-418.15 117.5,-418.15"/>
</g>
<!-- b5_2 -->
<g id="node10" class="node">
<title>b5_2</title>
<path fill="#f0f0f0" stroke="black" d="M144.23,-294.2C144.23,-294.2 83.77,-294.2 83.77,-294.2 77.77,-294.2 71.77,-288.2 71.77,-282.2 71.77,-282.2 71.77,-247.8 71.77,-247.8 71.77,-241.8 77.77,-235.8 83.77,-235.8 83.77,-235.8 144.23,-235.8 144.23,-235.8 150.23,-235.8 156.23,-241.8 156.23,-247.8 156.23,-247.8 156.23,-282.2 156.23,-282.2 156.23,-288.2 150.23,-294.2 144.23,-294.2"/>
<text xml:space="preserve" text-anchor="middle" x="114" y="-277.6" font-family="Arial" font-size="14.00">BasicBlock</text>
<text xml:space="preserve" text-anchor="middle" x="114" y="-260.8" font-family="Arial" font-size="14.00">3×3, 512</text>
<text xml:space="preserve" text-anchor="middle" x="114" y="-244" font-family="Arial" font-size="14.00">3×3, 512</text>
</g>
<!-- b5_1&#45;&gt;b5_2 -->
<g id="edge8" class="edge">
<title>b5_1-&gt;b5_2</title>
<path fill="none" stroke="black" d="M114,-330.76C114,-322.65 114,-314.02 114,-305.8"/>
<polygon fill="black" stroke="black" points="117.5,-306.07 114,-296.07 110.5,-306.07 117.5,-306.07"/>
</g>
<!-- gap -->
<g id="node11" class="node">
<title>gap</title>
<path fill="#a8d1ff" stroke="black" d="M183.55,-198.8C183.55,-198.8 44.45,-198.8 44.45,-198.8 38.45,-198.8 32.45,-192.8 32.45,-186.8 32.45,-186.8 32.45,-169.2 32.45,-169.2 32.45,-163.2 38.45,-157.2 44.45,-157.2 44.45,-157.2 183.55,-157.2 183.55,-157.2 189.55,-157.2 195.55,-163.2 195.55,-169.2 195.55,-169.2 195.55,-186.8 195.55,-186.8 195.55,-192.8 189.55,-198.8 183.55,-198.8"/>
<text xml:space="preserve" text-anchor="middle" x="114" y="-182.2" font-family="Arial" font-size="14.00">Global Average Pooling</text>
<text xml:space="preserve" text-anchor="middle" x="114" y="-165.4" font-family="Arial" font-size="14.00">7×7 → 1×1</text>
</g>
<!-- b5_2&#45;&gt;gap -->
<g id="edge10" class="edge">
<title>b5_2-&gt;gap</title>
<path fill="none" stroke="black" d="M114,-235.7C114,-227.65 114,-218.84 114,-210.61"/>
<polygon fill="black" stroke="black" points="117.5,-210.64 114,-200.64 110.5,-210.64 117.5,-210.64"/>
</g>
<!-- fc -->
<g id="node12" class="node">
<title>fc</title>
<path fill="#a8d1ff" stroke="black" d="M146.98,-120.2C146.98,-120.2 81.02,-120.2 81.02,-120.2 75.02,-120.2 69.02,-114.2 69.02,-108.2 69.02,-108.2 69.02,-90.6 69.02,-90.6 69.02,-84.6 75.02,-78.6 81.02,-78.6 81.02,-78.6 146.98,-78.6 146.98,-78.6 152.98,-78.6 158.98,-84.6 158.98,-90.6 158.98,-90.6 158.98,-108.2 158.98,-108.2 158.98,-114.2 152.98,-120.2 146.98,-120.2"/>
<text xml:space="preserve" text-anchor="middle" x="114" y="-103.6" font-family="Arial" font-size="14.00">FC</text>
<text xml:space="preserve" text-anchor="middle" x="114" y="-86.8" font-family="Arial" font-size="14.00">512 → 1000</text>
</g>
<!-- gap&#45;&gt;fc -->
<g id="edge11" class="edge">
<title>gap-&gt;fc</title>
<path fill="none" stroke="black" d="M114,-156.87C114,-149.28 114,-140.45 114,-132.06"/>
<polygon fill="black" stroke="black" points="117.5,-132.17 114,-122.17 110.5,-132.17 117.5,-132.17"/>
</g>
<!-- output -->
<g id="node13" class="node">
<title>output</title>
<path fill="#a8d1ff" stroke="black" d="M143.85,-41.6C143.85,-41.6 84.15,-41.6 84.15,-41.6 78.15,-41.6 72.15,-35.6 72.15,-29.6 72.15,-29.6 72.15,-12 72.15,-12 72.15,-6 78.15,0 84.15,0 84.15,0 143.85,0 143.85,0 149.85,0 155.85,-6 155.85,-12 155.85,-12 155.85,-29.6 155.85,-29.6 155.85,-35.6 149.85,-41.6 143.85,-41.6"/>
<text xml:space="preserve" text-anchor="middle" x="114" y="-25" font-family="Arial" font-size="14.00">Output</text>
<text xml:space="preserve" text-anchor="middle" x="114" y="-8.2" font-family="Arial" font-size="14.00">1000-class</text>
</g>
<!-- fc&#45;&gt;output -->
<g id="edge12" class="edge">
<title>fc-&gt;output</title>
<path fill="none" stroke="black" d="M114,-78.27C114,-70.68 114,-61.85 114,-53.46"/>
<polygon fill="black" stroke="black" points="117.5,-53.57 114,-43.57 110.5,-53.57 117.5,-53.57"/>
</g>
<!-- b2_1_in -->
<g id="node14" class="node">
<title>b2_1_in</title>
<ellipse fill="#f0f0f0" stroke="black" cx="72" cy="-1126" rx="0.36" ry="0.36"/>
</g>
<!-- b2_1_in&#45;&gt;b2_1 -->
<g id="edge13" class="edge">
<title>b2_1_in-&gt;b2_1</title>
<path fill="none" stroke="red" stroke-dasharray="5,2" d="M72.84,-1126C81.48,-1126 154.62,-1126 207.12,-1126"/>
<polygon fill="red" stroke="red" points="206.79,-1129.5 216.79,-1126 206.79,-1122.5 206.79,-1129.5"/>
<text xml:space="preserve" text-anchor="middle" x="145.56" y="-1133.2" font-family="Arial" font-size="14.00" fill="red">Residual Connection</text>
</g>
<!-- b2_1_in&#45;&gt;b2_1_out -->
<g id="edge15" class="edge">
<title>b2_1_in-&gt;b2_1_out</title>
<path fill="none" stroke="red" stroke-dasharray="5,2" d="M72.11,-1126.78C73.01,-1132.76 79.67,-1171.63 103.4,-1186 152.52,-1215.73 175.3,-1189.74 232.6,-1186 268.11,-1183.68 277.41,-1183.98 312,-1175.6 360.82,-1163.78 416.36,-1140.72 439.26,-1130.76"/>
<polygon fill="red" stroke="red" points="440.41,-1134.08 448.13,-1126.83 437.57,-1127.68 440.41,-1134.08"/>
<text xml:space="preserve" text-anchor="middle" x="168" y="-1187.8" font-family="Arial" font-size="14.00" fill="red">Residual Connection</text>
</g>
</g>
</svg>